<?xml version="1.0" encoding="UTF-8"?>
<svg version="1.1" xmlns="http://www.w3.org/2000/svg" width="300" height="259">
<path d="M0 0 C99 0 198 0 300 0 C300 85.47 300 170.94 300 259 C201 259 102 259 0 259 C0 173.53 0 88.06 0 0 Z " fill="#FEFCFD" transform="translate(0,0)"/>
<path d="M0 0 C0.9590625 0.41765625 1.918125 0.8353125 2.90625 1.265625 C25.33669033 11.53640557 42.12146711 31.24526947 51 54 C59.99889339 79.00023694 59.53193652 105.80578237 48.25 130.0625 C44.55611687 137.55844427 40.10109543 144.385791 35 151 C34.38769531 151.79664063 33.77539062 152.59328125 33.14453125 153.4140625 C18.1761983 171.47819139 -5.49694499 183.78036603 -28.63671875 186.71875 C-38.28781406 187.52581023 -47.20495379 187.33784332 -56.6875 185.5 C-72.45731166 182.47528674 -86.34529736 184.00787875 -100 193 C-97.46817686 187.04957303 -91.89477134 183.67724686 -86.125 181.125 C-83 180 -83 180 -81 180 C-81 179.34 -81 178.68 -81 178 C-81.78375 177.79375 -82.5675 177.5875 -83.375 177.375 C-105.31996155 169.05104907 -121.71692902 149.14514664 -131.31689453 128.39111328 C-140.45348442 107.75333366 -142.58774752 83.11228701 -135.85131836 61.46459961 C-134.2983243 56.45143548 -133.63392012 52.06932278 -133.4375 46.8125 C-133.06137438 37.83370638 -130.34614624 32.43747222 -123.8046875 26.2890625 C-122 25 -122 25 -118.75 24.375 C-116 25 -116 25 -114.125 26 C-112.26183535 29.31229272 -112.3574899 32.37134772 -113 36 C-115.32817657 42.71549598 -118.8349267 48.26233811 -125 52 C-126.04800781 52.19722656 -126.04800781 52.19722656 -127.1171875 52.3984375 C-129.1536858 52.81049764 -129.1536858 52.81049764 -129.94140625 54.72265625 C-130.67187348 57.47454224 -131.36419525 60.22433624 -132 63 C-132.28101563 64.14984375 -132.56203125 65.2996875 -132.8515625 66.484375 C-138.518156 92.43419569 -133.99096744 118.13735689 -120.125 140.75 C-110.0174601 156.20859044 -96.09570786 166.40040195 -80 175 C-80.63228516 173.82244141 -80.63228516 173.82244141 -81.27734375 172.62109375 C-86.71880492 162.18629174 -86.71880492 162.18629174 -87 156 C-83.40103539 160.54606057 -79.84050277 165.47849169 -78 171 C-76.68845391 171.70856833 -75.35142044 172.37080606 -74 173 C-72.19526232 174.49207479 -70.49605092 176.06617085 -68.78125 177.66015625 C-66.8478866 179.11441863 -65.36211843 179.58041317 -63 180 C-64.23221035 174.7087438 -65.8248985 171.47226756 -69.3125 167.1875 C-79.48368993 154.08923129 -82.47016374 141.31844146 -81 125 C-78.13030481 110.49686983 -66.93151806 101.80289331 -56 93 C-52.41304008 90.60869338 -49.70594251 90.6273619 -45.55078125 90.55859375 C-44.45361031 90.53793602 -44.45361031 90.53793602 -43.33427429 90.51686096 C-41.78518211 90.49359742 -40.23599003 90.47632762 -38.68676758 90.46459961 C-36.33679655 90.43777732 -33.99140678 90.3629099 -31.64257812 90.28710938 C-19.0294157 90.06778151 -19.0294157 90.06778151 -14.171875 94.3203125 C-13.08479683 95.5205551 -12.02225457 96.74408725 -11 98 C-10.24589844 98.63808594 -9.49179688 99.27617187 -8.71484375 99.93359375 C0.143128 107.42880062 7.14895026 115.18442085 9 127 C10.35036763 145.77232383 4.11209311 158.81843352 -7.6171875 173.125 C-9.19003489 175.05580051 -9.19003489 175.05580051 -10 178 C16.83222051 165.03838783 35.16343293 149.74845814 47 122 C47.27247559 121.37915527 47.54495117 120.75831055 47.82568359 120.11865234 C56.3225303 99.8847713 54.33180918 73.75462864 46.3046875 53.66015625 C35.60792122 28.46363811 15.19835131 11.50609728 -9.37109375 0.48828125 C-32.51252582 -8.58839352 -57.98243501 -8.09918382 -81 1 C-82.55289109 1.74796349 -84.09616607 2.51651824 -85.625 3.3125 C-86.73875 3.869375 -87.8525 4.42625 -89 5 C-89.66 4.67 -90.32 4.34 -91 4 C-83.56361659 -0.08942162 -76.27764337 -3.49205876 -68.125 -5.875 C-67.43672119 -6.07762451 -66.74844238 -6.28024902 -66.03930664 -6.48901367 C-44.23003021 -12.56185269 -20.25302226 -9.67138703 0 0 Z " fill="#FE55A4" transform="translate(204,38)"/>
<path d="M0 0 C1.50057784 0.03517613 3.00123552 0.06710402 4.50195312 0.09570312 C8.1488166 0.17219421 11.79263752 0.29262253 15.4375 0.4375 C15.4375 1.0975 15.4375 1.7575 15.4375 2.4375 C16.21673828 2.77007812 16.21673828 2.77007812 17.01171875 3.109375 C26.92698909 8.53802543 36.48006679 17.39311237 39.95849609 28.35791016 C43.16321184 42.27114601 40.4079277 55.17035713 33.0625 67.125 C30.86856275 70.43713753 28.56299238 73.61458682 26.125 76.75 C23.74942108 79.8224154 22.39024641 82.62651438 21.4375 86.4375 C20.1175 86.4375 18.7975 86.4375 17.4375 86.4375 C16.55901397 78.75074722 19.12979387 75.13136429 23.6875 69.125 C31.6667074 58.31365199 31.6667074 58.31365199 34.4375 45.4375 C33.839375 46.05625 33.24125 46.675 32.625 47.3125 C25.70960043 54.03031673 16.42520515 53.8478683 7.32299805 53.88452148 C-1.14811925 53.68159417 -8.16192712 50.89715796 -15.51171875 46.7890625 C-18.96327126 45.25994961 -21.36793994 45.06733556 -25.125 45.125 C-26.76662109 45.13080078 -26.76662109 45.13080078 -28.44140625 45.13671875 C-31.52487268 45.43387384 -33.77111439 46.13277414 -36.5625 47.4375 C-33.50450864 56.68498348 -29.52380651 63.78154789 -23.5625 71.4375 C-19.20107027 77.19332914 -17.80539169 81.1692602 -18.5625 88.4375 C-20.2125 88.4375 -21.8625 88.4375 -23.5625 88.4375 C-23.6445166 87.87482422 -23.7265332 87.31214844 -23.81103516 86.73242188 C-24.91114694 80.57386424 -27.02896051 76.74456167 -30.9375 71.9375 C-34.9777029 66.69456831 -38.55547842 61.82795521 -40.5625 55.4375 C-40.78292969 54.73753906 -41.00335938 54.03757813 -41.23046875 53.31640625 C-44.0282371 42.78252677 -43.48994881 31.76629076 -38.30859375 22.09765625 C-34.80223159 16.50849586 -30.51830819 11.77683447 -25.5625 7.4375 C-24.72851685 6.55421021 -24.72851685 6.55421021 -23.87768555 5.65307617 C-16.73958559 -1.09581255 -9.17755067 -0.37585509 0 0 Z " fill="#FEFAFD" transform="translate(168.5625,131.5625)"/>
<path d="M0 0 C0.9590625 0.41765625 1.918125 0.8353125 2.90625 1.265625 C25.33669033 11.53640557 42.12146711 31.24526947 51 54 C56.43912591 69.11068422 57.28258519 83.11243256 57 99 C56.67 99 56.34 99 56 99 C55.67 94.38 55.34 89.76 55 85 C54.67 89.29 54.34 93.58 54 98 C53.67 98 53.34 98 53 98 C52.9906543 97.3922876 52.98130859 96.7845752 52.97167969 96.15844727 C52.3723866 64.96876737 44.46766494 41.39546993 21.703125 19.42578125 C2.07849754 1.81466326 -24.43615074 -6.96639798 -50.63671875 -6.2890625 C-62.66305402 -5.25544019 -74.88215857 -2.28072085 -85.625 3.3125 C-86.73875 3.869375 -87.8525 4.42625 -89 5 C-89.66 4.67 -90.32 4.34 -91 4 C-83.56361659 -0.08942162 -76.27764337 -3.49205876 -68.125 -5.875 C-67.43672119 -6.07762451 -66.74844238 -6.28024902 -66.03930664 -6.48901367 C-44.23003021 -12.56185269 -20.25302226 -9.67138703 0 0 Z " fill="#FE57A9" transform="translate(204,38)"/>
<path d="M0 0 C2.79035429 2.2477854 3.85910005 3.57730016 5 7 C5.86404361 15.51295427 4.67312518 22.99119294 -0.4609375 29.9921875 C-2 31.6875 -2 31.6875 -5 34 C-7.046875 33.8828125 -7.046875 33.8828125 -9 33 C-13.04340367 27.74607116 -13.62010725 21.35871334 -13.390625 14.94140625 C-12.66588411 9.48410734 -10.84330271 4.96222546 -7.0625 0.9375 C-4.41567895 -0.26560048 -2.8756381 -0.50323667 0 0 Z " fill="#FE2463" transform="translate(105,157)"/>
<path d="M0 0 C4.33330127 2.75755535 8.05560644 6.35388418 10.75 10.75 C10.75 12.07 10.75 13.39 10.75 14.75 C6.52362198 16.86318901 1.33799525 16.25102034 -3.25 15.75 C-8.6538852 13.83197889 -13.39715513 10.83550607 -16.25 5.75 C-16.5 2.4375 -16.5 2.4375 -16.25 -0.25 C-10.85457702 -3.41157138 -5.6295168 -2.16519877 0 0 Z " fill="#FED1F6" transform="translate(57.25,151.25)"/>
<path d="M0 0 C1.02867187 0.47566406 2.05734375 0.95132813 3.1171875 1.44140625 C9.27620864 4.38268442 14.74317963 7.63993134 20 12 C19.67 13.32 19.34 14.64 19 16 C15.5513304 14.38240973 12.44717233 12.37767858 9.25 10.3125 C-12.98382419 -3.61762578 -39.52858358 -9.63736936 -65.38671875 -3.91796875 C-72.4247305 -2.12993333 -79.17117832 -0.04765851 -85.625 3.3125 C-86.73875 3.869375 -87.8525 4.42625 -89 5 C-89.66 4.67 -90.32 4.34 -91 4 C-83.56361659 -0.08942162 -76.27764337 -3.49205876 -68.125 -5.875 C-67.43672119 -6.07762451 -66.74844238 -6.28024902 -66.03930664 -6.48901367 C-44.26764009 -12.55138014 -20.2102683 -9.71106207 0 0 Z " fill="#FE5BAB" transform="translate(204,38)"/>
<path d="M0 0 C1 1 1 1 1.25 4.6875 C1.14020623 9.82950822 -0.24726654 13.09249979 -3.76953125 16.92578125 C-8.95027385 21.86878423 -8.95027385 21.86878423 -13.5 22.4375 C-14.325 22.293125 -15.15 22.14875 -16 22 C-16.69659859 13.64081694 -14.76141705 8.58237887 -9.6875 2 C-6.25348454 -0.55554639 -4.18542633 -0.48293381 0 0 Z " fill="#FE55A3" transform="translate(88,120)"/>
<path d="M0 0 C4.59758585 0.68393839 6.68870351 3.68884671 9.4921875 7.15234375 C12.02460502 10.65051371 11.98318126 12.89346193 11.9375 17.1875 C11.92847656 18.28320312 11.91945313 19.37890625 11.91015625 20.5078125 C11.89855469 21.35085937 11.88695313 22.19390625 11.875 23.0625 C6.38750298 22.92531257 3.49368745 20.63296332 -0.3515625 17.0234375 C-3.02633607 14.06586849 -4.08552704 11.94319905 -5.125 8.0625 C-4.61078811 0.09221576 -4.61078811 0.09221576 0 0 Z " fill="#FE54A3" transform="translate(49.125,105.9375)"/>
<path d="M0 0 C3.11556587 1.16660119 5.79504225 2.46862857 8 5 C8 6.32 8 7.64 8 9 C2.26224501 12.93446057 -4.23799895 12.86323418 -11 12 C-13.26476264 10.83490891 -15.19703758 9.80296242 -17 8 C-17.3125 5.625 -17.3125 5.625 -17 3 C-12.36017537 -1.65095131 -6.0974011 -0.7830194 0 0 Z " fill="#FE55A3" transform="translate(81,190)"/>
<path d="M0 0 C2 2 2 2 2 4.6875 C0.23569178 10.53177099 -3.17038708 13.96876363 -8.4375 16.9375 C-12.15234228 18.04543542 -15.1459255 18.23596374 -19 18 C-18.50334852 11.79185653 -17.00962707 7.83786175 -12.42578125 3.515625 C-8.33238181 0.24090545 -5.36711578 -0.73666295 0 0 Z " fill="#FED1F6" transform="translate(93,94)"/>
<path d="M0 0 C2.79035429 2.2477854 3.85910005 3.57730016 5 7 C5.86404361 15.51295427 4.67312518 22.99119294 -0.4609375 29.9921875 C-2 31.6875 -2 31.6875 -5 34 C-7.10546875 33.7578125 -7.10546875 33.7578125 -9 33 C-10.3125 31.1875 -10.3125 31.1875 -11 29 C-10.625 26.75 -10.625 26.75 -10 25 C-9.34 26.65 -8.68 28.3 -8 30 C-4.09818474 28.7345464 -2.05518966 27.59658191 0 24 C0.94786652 20.25397957 1.1346644 16.73109405 1.125 12.875 C1.12757812 11.84117187 1.13015625 10.80734375 1.1328125 9.7421875 C1.11919881 6.90765695 1.11919881 6.90765695 0 4 C-3.71599191 3.79913557 -4.77208445 3.8480563 -8 6 C-8 4.68 -8 3.36 -8 2 C-4.75173326 -0.16551116 -3.76905843 -0.55156953 0 0 Z " fill="#FE1364" transform="translate(105,157)"/>
<path d="M0 0 C1.44439453 -0.00580078 1.44439453 -0.00580078 2.91796875 -0.01171875 C7.68270774 -0.00516478 12.19077938 0.13137744 16.875 1.125 C15.73828125 2.64453125 15.73828125 2.64453125 13.875 4.125 C11.23046875 4.19921875 11.23046875 4.19921875 8.0625 3.8125 C-10.21896268 2.01067256 -28.22241411 3.83247323 -44.75 12.4375 C-45.86375 12.994375 -46.9775 13.55125 -48.125 14.125 C-48.785 13.795 -49.445 13.465 -50.125 13.125 C-42.68861659 9.03557838 -35.40264337 5.63294124 -27.25 3.25 C-26.56172119 3.04737549 -25.87344238 2.84475098 -25.16430664 2.63598633 C-16.78103863 0.30164767 -8.65411647 -0.03503691 0 0 Z " fill="#FE89CA" transform="translate(163.125,28.875)"/>
<path d="M0 0 C12.87 0 25.74 0 39 0 C39.495 1.485 39.495 1.485 40 3 C26.8 3 13.6 3 0 3 C0 2.01 0 1.02 0 0 Z " fill="#FE3E9A" transform="translate(148,115)"/>
<path d="M0 0 C12.87 0 25.74 0 39 0 C39 0.99 39 1.98 39 3 C26.13 3 13.26 3 0 3 C0 2.01 0 1.02 0 0 Z " fill="#FE47A0" transform="translate(148,109)"/>
<path d="M0 0 C0.96550781 -0.02578125 1.93101563 -0.0515625 2.92578125 -0.078125 C6.09737544 0.29869807 7.45930568 0.98475732 9.6875 3.25 C9.6875 4.24 9.6875 5.23 9.6875 6.25 C5.15796119 8.5147694 1.65702231 8.56552523 -3.3125 8.25 C-5.8125 7.25 -5.8125 7.25 -7.3125 6.25 C-6.27655651 0.47831482 -5.89571599 0.09370674 0 0 Z " fill="#FE1961" transform="translate(66.3125,173.75)"/>
<path d="M0 0 C3.71198163 -0.34530062 5.57283878 -0.25629673 8.8125 1.6875 C11.20339329 4.21501576 11.7153924 5.58470886 12 9 C7.95853394 9.31697773 5.62235307 9.35752198 2.0625 7.3125 C0 5 0 5 -0.3125 2.25 C-0.209375 1.5075 -0.10625 0.765 0 0 Z " fill="#FE105C" transform="translate(49,136)"/>
<path d="M0 0 C0.33 0 0.66 0 1 0 C3.42531194 10.65404888 3.19323762 21.13575149 3 32 C2.67 32 2.34 32 2 32 C1.67 27.38 1.34 22.76 1 18 C0.67 22.29 0.34 26.58 0 31 C-0.33 31 -0.66 31 -1 31 C-1.22638576 26.77159716 -1.42794972 22.54236342 -1.625 18.3125 C-1.68945312 17.11431641 -1.75390625 15.91613281 -1.8203125 14.68164062 C-1.871875 13.52470703 -1.9234375 12.36777344 -1.9765625 11.17578125 C-2.02893066 10.11270752 -2.08129883 9.04963379 -2.13525391 7.9543457 C-1.99408472 4.87079273 -1.31336415 2.77240862 0 0 Z " fill="#FE71BB" transform="translate(258,105)"/>
<path d="M0 0 C6.6739772 7.2807024 5.2147898 17.83563513 5 27 C4.67 27 4.34 27 4 27 C4 22.38 4 17.76 4 13 C3.34 13 2.68 13 2 13 C2 16.3 2 19.6 2 23 C1.67 23 1.34 23 1 23 C0.92652344 21.57107422 0.92652344 21.57107422 0.8515625 20.11328125 C0.77679688 18.85902344 0.70203125 17.60476562 0.625 16.3125 C0.55539063 15.07113281 0.48578125 13.82976562 0.4140625 12.55078125 C0.0329283 9.28237568 -0.71282232 6.9877173 -2 4 C-2 3.01 -2 2.02 -2 1 C-1.34 0.67 -0.68 0.34 0 0 Z " fill="#FE66B3" transform="translate(208,153)"/>
<path d="M0 0 C-0.48717949 6.33333333 -0.48717949 6.33333333 -2.875 9.4375 C-5 11 -5 11 -8 11 C-8.35095944 7.22718603 -8.24849965 5.40824943 -6.25 2.125 C-4 0 -4 0 0 0 Z " fill="#FE55A7" transform="translate(90,159)"/>
<path d="M0 0 C-0.36734694 6.36734694 -0.36734694 6.36734694 -3.4375 9.4375 C-6 11 -6 11 -8 11 C-8.48635236 4.67741935 -8.48635236 4.67741935 -6.25 1.5625 C-4 0 -4 0 0 0 Z " fill="#FE216F" transform="translate(85,147)"/>
<path d="M0 0 C0.33 0 0.66 0 1 0 C1.33 8.25 1.66 16.5 2 25 C2.66 25.33 3.32 25.66 4 26 C4.59355614 28.64860427 4.74209269 31.29197322 5 34 C4.67 34 4.34 34 4 34 C3.505 36.475 3.505 36.475 3 39 C2.67 39 2.34 39 2 39 C0.20044018 30.17465025 -0.25190983 21.74107307 -0.125 12.75 C-0.11597656 11.51636719 -0.10695313 10.28273438 -0.09765625 9.01171875 C-0.07436851 6.00759976 -0.04166756 3.00391057 0 0 Z " fill="#FE66B3" transform="translate(65,112)"/>
<path d="M0 0 C2.375 0.3125 2.375 0.3125 5 1 C7.4294516 4.6441774 7.16179575 6.71241272 7 11 C4.37565253 10.63802104 3.17986311 10.17343943 1.25 8.3125 C-0.32663401 5.39572708 -0.22275681 3.26709987 0 0 Z " fill="#FE1162" transform="translate(57,93)"/>
<path d="M0 0 C0.33 0 0.66 0 1 0 C2.25237852 4.84054238 2.14767328 9.60083139 2.125 14.5625 C2.12886719 15.41263672 2.13273437 16.26277344 2.13671875 17.13867188 C2.13542969 17.96044922 2.13414062 18.78222656 2.1328125 19.62890625 C2.13168457 20.37213135 2.13055664 21.11535645 2.12939453 21.88110352 C1.99800151 24.03272621 1.58919579 25.93079354 1 28 C0.34 28 -0.32 28 -1 28 C-2.25709036 24.22872893 -1.60201239 21.93078679 -1 18 C-0.74871919 14.85728748 -0.5922748 11.71127916 -0.4375 8.5625 C-0.39431641 7.73556641 -0.35113281 6.90863281 -0.30664062 6.05664062 C-0.20161967 4.03790451 -0.10041441 2.01897049 0 0 Z " fill="#FE459E" transform="translate(258,118)"/>
<path d="M0 0 C0.33 0.99 0.66 1.98 1 3 C1.66 3 2.32 3 3 3 C3.33 2.34 3.66 1.68 4 1 C4.33 1.66 4.66 2.32 5 3 C9.54805635 3.17835515 12.8794254 2.99785435 17 1 C17 1.99 17 2.98 17 4 C12.47046119 6.2647694 8.96952231 6.31552523 4 6 C1.5 5 1.5 5 0 4 C0 2.68 0 1.36 0 0 Z " fill="#FE2570" transform="translate(59,176)"/>
<path d="M0 0 C0.66 0 1.32 0 2 0 C2 4.95 2 9.9 2 15 C1.01 15.33 0.02 15.66 -1 16 C-0.67 10.72 -0.34 5.44 0 0 Z " fill="#FE429C" transform="translate(210,166)"/>
<path d="M0 0 C0.99 0.33 1.98 0.66 3 1 C3.33 2.65 3.66 4.3 4 6 C-2.52307692 6.36923077 -2.52307692 6.36923077 -4.9375 4.5 C-5.4634375 3.7575 -5.4634375 3.7575 -6 3 C-3.03 3.495 -3.03 3.495 0 4 C0 2.68 0 1.36 0 0 Z " fill="#FE1E6C" transform="translate(57,139)"/>
<path d="M0 0 C1.03125 0.268125 2.0625 0.53625 3.125 0.8125 C1.06201866 2.87548134 0.00234763 3.33966916 -2.6875 4.25 C-6.01666639 5.43855485 -8.90661872 6.86449978 -11.875 8.8125 C-9.81017019 3.23745951 -6.00116212 -0.29037881 0 0 Z " fill="#FE70BB" transform="translate(115.875,222.1875)"/>
<path d="M0 0 C0.66 0 1.32 0 2 0 C4.28571429 8.42857143 4.28571429 8.42857143 4 13 C1.0396355 9.63594943 -0.03380551 6.34787522 -1 2 C-0.67 1.34 -0.34 0.68 0 0 Z " fill="#FE4CA2" transform="translate(250,85)"/>
<path d="M0 0 C1.65 0.33 3.3 0.66 5 1 C4.67 2.65 4.34 4.3 4 6 C2.68 6 1.36 6 0 6 C-1.125 2.25 -1.125 2.25 0 0 Z " fill="#FEE5F7" transform="translate(156,211)"/>
<path d="M0 0 C0 0.99 0 1.98 0 3 C-5.46511628 8 -5.46511628 8 -7 8 C-7.36275695 3.52599758 -7.36275695 3.52599758 -5.75 1.1875 C-4 0 -4 0 0 0 Z " fill="#FE095A" transform="translate(85,147)"/>
<path d="M0 0 C1.2065625 0.0309375 1.2065625 0.0309375 2.4375 0.0625 C1.4375 3.0625 1.4375 3.0625 -1.5625 5.0625 C-1.8925 6.0525 -2.2225 7.0425 -2.5625 8.0625 C-3.2225 8.0625 -3.8825 8.0625 -4.5625 8.0625 C-3.54737544 0.08652135 -3.54737544 0.08652135 0 0 Z " fill="#FE5EAD" transform="translate(48.5625,105.9375)"/>
<path d="M0 0 C2.86453858 3.41016497 4.34703566 6.90694544 6 11 C5.01 11.33 4.02 11.66 3 12 C2.49166409 10.75336669 1.99368855 9.50250613 1.5 8.25 C1.2215625 7.55390625 0.943125 6.8578125 0.65625 6.140625 C0 4 0 4 0 0 Z " fill="#FE66B5" transform="translate(117,194)"/>
<path d="M0 0 C0.98120464 3.05263664 0.98120464 4.94736336 0 8 C-0.99 8 -1.98 8 -3 8 C-3 7.34 -3 6.68 -3 6 C-3.99 5.67 -4.98 5.34 -6 5 C-5.195625 4.731875 -4.39125 4.46375 -3.5625 4.1875 C-2.716875 3.795625 -1.87125 3.40375 -1 3 C-0.67 2.01 -0.34 1.02 0 0 Z " fill="#FE66B3" transform="translate(203,176)"/>
<path d="M0 0 C1.98 0.495 1.98 0.495 4 1 C4 2.32 4 3.64 4 5 C2.35 4.67 0.7 4.34 -1 4 C-0.67 2.68 -0.34 1.36 0 0 Z " fill="#FEEAFA" transform="translate(153,199)"/>
<path d="M0 0 C1.9375 0.375 1.9375 0.375 4 1 C4.33 1.66 4.66 2.32 5 3 C1.17679443 4.42258812 -1.91281305 5.24042276 -6 5 C-5.38125 4.9175 -4.7625 4.835 -4.125 4.75 C-1.81562433 4.18741541 -1.81562433 4.18741541 -0.75 1.9375 C-0.5025 1.298125 -0.255 0.65875 0 0 Z " fill="#FE6CB5" transform="translate(186,218)"/>
<path d="M0 0 C0.66 0.33 1.32 0.66 2 1 C2 1.99 2 2.98 2 4 C-0.31 4.33 -2.62 4.66 -5 5 C-4 2 -4 2 -2.0625 0.75 C-1.381875 0.5025 -0.70125 0.255 0 0 Z " fill="#FE61B0" transform="translate(200,213)"/>
<path d="M0 0 C0 0.66 0 1.32 0 2 C-2.90548882 4.04169485 -4.40142046 5 -8 5 C-7.25 3.0625 -7.25 3.0625 -6 1 C-3.86997684 0.20124132 -2.26695035 0 0 0 Z " fill="#FE4CA2" transform="translate(209,211)"/>
<path d="M0 0 C1.98 0.495 1.98 0.495 4 1 C3.67 2.32 3.34 3.64 3 5 C1.68 4.67 0.36 4.34 -1 4 C-0.67 2.68 -0.34 1.36 0 0 Z " fill="#FEDEF5" transform="translate(163,204)"/>
<path d="M0 0 C0.66 0 1.32 0 2 0 C0.8141763 3.37503669 -0.27573689 5.64722731 -3 8 C-2.25 2.25 -2.25 2.25 0 0 Z " fill="#FE60AD" transform="translate(198,189)"/>
<path d="M0 0 C0.66 0.33 1.32 0.66 2 1 C2 1.99 2 2.98 2 4 C1.01 4.33 0.02 4.66 -1 5 C-1 4.34 -1 3.68 -1 3 C-2.32 3.33 -3.64 3.66 -5 4 C-3.36587557 2.29159719 -2.13093906 1.06546953 0 0 Z " fill="#FE6AB4" transform="translate(210,208)"/>
<path d="M0 0 C1.98 0 3.96 0 6 0 C4.02 0.99 4.02 0.99 2 2 C2.33 2.99 2.66 3.98 3 5 C2.01 5 1.02 5 0 5 C0 3.35 0 1.7 0 0 Z " fill="#FE1D6A" transform="translate(49,136)"/>
<path d="M0 0 C0.66666667 2.66666667 1.33333333 5.33333333 2 8 C1.34 8 0.68 8 0 8 C-0.66 8.66 -1.32 9.32 -2 10 C-1.54177532 6.53058454 -1.10868317 3.32604951 0 0 Z " fill="#FE65B2" transform="translate(70,93)"/>
</svg>
