<?xml version="1.0" encoding="UTF-8"?>
<!DOCTYPE svg PUBLIC "-//W3C//DTD SVG 1.1//EN" "http://www.w3.org/Graphics/SVG/1.1/DTD/svg11.dtd">
<svg xmlns="http://www.w3.org/2000/svg" version="1.1" width="1563px" height="1563px" style="shape-rendering:geometricPrecision; text-rendering:geometricPrecision; image-rendering:optimizeQuality; fill-rule:evenodd; clip-rule:evenodd" xmlns:xlink="http://www.w3.org/1999/xlink">
<g><path style="opacity:0.993" fill="#e4b7c2" d="M 633.5,725.5 C 620.01,726.496 606.344,726.829 592.5,726.5C 592.5,762.5 592.5,798.5 592.5,834.5C 606.344,834.171 620.01,834.504 633.5,835.5C 633.051,887.52 633.551,939.52 635,991.5C 636.884,1007.56 646.051,1015.4 662.5,1015C 708.573,1023.09 747.073,1009.92 778,975.5C 798.063,950.715 812.063,922.715 820,891.5C 824.12,877.023 827.286,862.356 829.5,847.5C 835.5,847.5 841.5,847.5 847.5,847.5C 844.43,909.189 845.096,970.856 849.5,1032.5C 712.502,1030.11 575.502,1030.11 438.5,1032.5C 438.5,1027.5 438.5,1022.5 438.5,1017.5C 450.957,1017.78 462.957,1015.61 474.5,1011C 481.597,1005.65 485.764,998.486 487,989.5C 488.051,980.531 488.718,971.531 489,962.5C 489.667,841.5 489.667,720.5 489,599.5C 489.232,586.451 487.232,573.785 483,561.5C 477.788,553.307 470.288,548.807 460.5,548C 453.199,546.837 445.866,546.003 438.5,545.5C 438.5,540.5 438.5,535.5 438.5,530.5C 570.836,533.039 703.17,533.039 835.5,530.5C 831.132,587.454 830.132,644.454 832.5,701.5C 826.833,701.5 821.167,701.5 815.5,701.5C 811.305,666.749 800.805,634.082 784,603.5C 750.952,555.586 705.785,538.086 648.5,551C 639.895,555.023 635.395,561.856 635,571.5C 633.551,622.813 633.051,674.146 633.5,725.5 Z"/></g>
<g><path style="opacity:0.995" fill="#e4b7c2" d="M 936.5,835.5 C 957.66,834.503 978.993,834.169 1000.5,834.5C 1000.5,798.5 1000.5,762.5 1000.5,726.5C 978.993,726.831 957.66,726.497 936.5,725.5C 936.667,678.499 936.5,631.499 936,584.5C 935.948,574.681 933.281,565.681 928,557.5C 922.752,551.886 916.252,548.719 908.5,548C 901.199,546.837 893.866,546.003 886.5,545.5C 886.5,540.5 886.5,535.5 886.5,530.5C 968.167,533.149 1049.83,533.149 1131.5,530.5C 1131.5,535.5 1131.5,540.5 1131.5,545.5C 1119.5,545.945 1107.83,548.111 1096.5,552C 1089.54,556.643 1085.37,563.143 1084,571.5C 1083,577.461 1082.34,583.461 1082,589.5C 1081.33,717.167 1081.33,844.833 1082,972.5C 1081.94,983.411 1084.27,993.745 1089,1003.5C 1095.18,1011.25 1103.35,1015.41 1113.5,1016C 1119.47,1016.96 1125.47,1017.46 1131.5,1017.5C 1131.5,1022.5 1131.5,1027.5 1131.5,1032.5C 1049.83,1029.87 968.167,1029.87 886.5,1032.5C 886.5,1027.5 886.5,1022.5 886.5,1017.5C 897.046,1017.45 907.379,1015.95 917.5,1013C 925.36,1010 930.527,1004.5 933,996.5C 934.515,990.925 935.515,985.258 936,979.5C 936.5,931.501 936.667,883.501 936.5,835.5 Z"/></g>
<g><path style="opacity:0.979" fill="#e4b7c2" d="M 751.5,725.5 C 739.833,726.833 728.167,726.833 716.5,725.5C 725.983,711.914 732.483,696.914 736,680.5C 741.741,679.525 747.575,679.192 753.5,679.5C 752.652,694.824 751.985,710.157 751.5,725.5 Z"/></g>
<g><path style="opacity:1" fill="#fcf6f1" d="M 633.5,725.5 C 661.167,725.5 688.833,725.5 716.5,725.5C 728.167,726.833 739.833,726.833 751.5,725.5C 813.167,725.5 874.833,725.5 936.5,725.5C 957.66,726.497 978.993,726.831 1000.5,726.5C 1000.5,762.5 1000.5,798.5 1000.5,834.5C 978.993,834.169 957.66,834.503 936.5,835.5C 875.5,835.5 814.5,835.5 753.5,835.5C 742.833,834.167 732.167,834.167 721.5,835.5C 692.167,835.5 662.833,835.5 633.5,835.5C 620.01,834.504 606.344,834.171 592.5,834.5C 592.5,798.5 592.5,762.5 592.5,726.5C 606.344,726.829 620.01,726.496 633.5,725.5 Z"/></g>
<g><path style="opacity:1" fill="#e5bac4" d="M 645.5,755.5 C 653.167,755.5 660.833,755.5 668.5,755.5C 668.5,756.833 668.5,758.167 668.5,759.5C 662.5,759.5 656.5,759.5 650.5,759.5C 650.5,763.833 650.5,768.167 650.5,772.5C 656.167,772.5 661.833,772.5 667.5,772.5C 667.5,774.167 667.5,775.833 667.5,777.5C 661.833,777.5 656.167,777.5 650.5,777.5C 650.5,781.833 650.5,786.167 650.5,790.5C 656.833,790.5 663.167,790.5 669.5,790.5C 669.5,791.833 669.5,793.167 669.5,794.5C 661.5,794.5 653.5,794.5 645.5,794.5C 645.5,781.5 645.5,768.5 645.5,755.5 Z"/></g>
<g><path style="opacity:1" fill="#e4b9c3" d="M 688.5,755.5 C 690.167,755.5 691.833,755.5 693.5,755.5C 693.5,767.167 693.5,778.833 693.5,790.5C 699.5,790.5 705.5,790.5 711.5,790.5C 711.5,791.833 711.5,793.167 711.5,794.5C 703.833,794.5 696.167,794.5 688.5,794.5C 688.5,781.5 688.5,768.5 688.5,755.5 Z"/></g>
<g><path style="opacity:1" fill="#e5bac4" d="M 729.5,755.5 C 731.167,755.5 732.833,755.5 734.5,755.5C 734.5,768.5 734.5,781.5 734.5,794.5C 732.833,794.5 731.167,794.5 729.5,794.5C 729.5,781.5 729.5,768.5 729.5,755.5 Z"/></g>
<g><path style="opacity:1" fill="#e5bac4" d="M 751.5,756.5 C 753.364,755.207 755.364,755.207 757.5,756.5C 760.667,761.5 763.833,766.5 767,771.5C 770.167,766.5 773.333,761.5 776.5,756.5C 778.421,755.359 780.421,755.192 782.5,756C 778.5,762.333 774.5,768.667 770.5,775C 774.5,781.333 778.5,787.667 782.5,794C 780.421,794.808 778.421,794.641 776.5,793.5C 773.333,788.5 770.167,783.5 767,778.5C 763.833,783.5 760.667,788.5 757.5,793.5C 755.579,794.641 753.579,794.808 751.5,794C 755.506,787.65 759.506,781.317 763.5,775C 759.607,768.7 755.607,762.533 751.5,756.5 Z"/></g>
<g><path style="opacity:1" fill="#e5b9c4" d="M 799.5,755.5 C 801.167,755.5 802.833,755.5 804.5,755.5C 804.5,768.5 804.5,781.5 804.5,794.5C 802.833,794.5 801.167,794.5 799.5,794.5C 799.5,781.5 799.5,768.5 799.5,755.5 Z"/></g>
<g><path style="opacity:1" fill="#e5bac4" d="M 824.5,755.5 C 830.842,755.334 837.175,755.5 843.5,756C 851.105,759.725 853.272,765.558 850,773.5C 848.31,775.603 846.476,777.603 844.5,779.5C 847.167,784.167 849.833,788.833 852.5,793.5C 850.051,794.91 847.884,794.576 846,792.5C 843.961,788.255 841.794,784.088 839.5,780C 836.183,779.502 832.85,779.335 829.5,779.5C 829.5,784.5 829.5,789.5 829.5,794.5C 827.833,794.5 826.167,794.5 824.5,794.5C 824.5,781.5 824.5,768.5 824.5,755.5 Z"/></g>
<g><path style="opacity:1" fill="#e5bbc5" d="M 895.5,755.5 C 897.167,755.5 898.833,755.5 900.5,755.5C 900.5,768.5 900.5,781.5 900.5,794.5C 898.833,794.5 897.167,794.5 895.5,794.5C 895.5,781.5 895.5,768.5 895.5,755.5 Z"/></g>
<g><path style="opacity:1" fill="#e5bac4" d="M 917.5,755.5 C 919.467,755.261 921.301,755.594 923,756.5C 926.667,766.833 930.333,777.167 934,787.5C 938.523,777.098 942.357,766.431 945.5,755.5C 947.167,755.5 948.833,755.5 950.5,755.5C 945.969,768.426 941.636,781.426 937.5,794.5C 935.5,794.5 933.5,794.5 931.5,794.5C 927.231,781.36 922.564,768.36 917.5,755.5 Z"/></g>
<g><path style="opacity:1" fill="#fbf3ef" d="M 829.5,759.5 C 834.267,759.191 838.934,759.691 843.5,761C 846.886,764.373 847.386,768.206 845,772.5C 844.097,773.701 842.931,774.535 841.5,775C 837.514,775.499 833.514,775.666 829.5,775.5C 829.5,770.167 829.5,764.833 829.5,759.5 Z"/></g>
<g><path style="opacity:0.965" fill="#e4b7c2" d="M 721.5,835.5 C 732.167,834.167 742.833,834.167 753.5,835.5C 754,850.841 754.667,866.174 755.5,881.5C 749.794,881.829 744.128,881.495 738.5,880.5C 735.76,864.265 730.093,849.265 721.5,835.5 Z"/></g>
</svg>
